<svg width="32" height="14" viewBox="0 0 32 14" fill="none" xmlns="http://www.w3.org/2000/svg">
<path d="M10.1794 2.29978L9.12306 4.12813C9.9962 4.87257 10.5966 6.02197 10.5966 7.3144C10.5966 9.6649 8.65422 11.5975 6.25501 11.5975C3.86957 11.5975 1.92629 9.6649 1.92629 7.24892C1.92629 6.962 1.9521 6.67422 2.00457 6.40022L0.0234375 7.54962C0.0234375 10.9444 2.90438 13.5827 6.25501 13.5827C9.76221 13.5827 12.6044 10.7488 12.6044 7.28855C12.6044 5.26375 11.6264 3.48795 10.1794 2.29978ZM7.14192 3.08385L8.2112 1.22965C7.61161 1.00735 7.0774 0.916016 6.54234 0.916016C6.13802 0.916016 5.78618 0.968574 5.52553 1.02027L4.16979 3.37077C4.66529 3.08385 5.30445 2.92704 5.99522 2.92704C6.39868 2.92704 6.76342 2.97873 7.14192 3.08385ZM17.1133 5.35101C16.6695 5.35101 16.266 5.49576 15.9555 5.762L15.866 5.44665H15.0823V9.42043H16.0802V7.26122C16.0802 6.80111 16.3873 6.33584 16.9748 6.33584C17.4342 6.33584 17.7078 6.65981 17.7078 7.20263V9.42043H18.7056V7.12853C18.7048 6.04892 18.0803 5.35101 17.1133 5.35101ZM30.2225 5.35101C29.7778 5.35101 29.3752 5.49576 29.0647 5.762L28.9752 5.44665H28.1907V9.42043H29.1885V7.26122C29.1885 6.80111 29.4956 6.33584 30.0832 6.33584C30.5425 6.33584 30.8161 6.65981 30.8161 7.20263V9.42043H31.8131V7.12853C31.814 6.04892 31.1894 5.35101 30.2225 5.35101ZM25.6271 5.35101C24.5088 5.35101 23.6322 6.26432 23.6322 7.42923C23.6322 8.595 24.508 9.50832 25.6271 9.50832C26.7454 9.50832 27.622 8.595 27.622 7.42923C27.622 6.26432 26.7454 5.35101 25.6271 5.35101ZM25.6271 8.52435C25.0577 8.52435 24.6447 8.06425 24.6447 7.43009C24.6447 6.79594 25.0577 6.33584 25.6271 6.33584C26.1966 6.33584 26.6095 6.79594 26.6095 7.43009C26.6095 8.06425 26.1966 8.52435 25.6271 8.52435ZM21.2683 5.35101C20.15 5.35101 19.2743 6.26432 19.2743 7.42923C19.2743 8.595 20.15 9.50832 21.2683 9.50832C22.3866 9.50832 23.2632 8.595 23.2632 7.42923C23.2632 6.26432 22.3866 5.35101 21.2683 5.35101ZM21.2683 8.52435C20.6988 8.52435 20.2859 8.06425 20.2859 7.43009C20.2859 6.79594 20.6988 6.33584 21.2683 6.33584C21.8378 6.33584 22.2507 6.79594 22.2507 7.43009C22.2507 8.06425 21.8378 8.52435 21.2683 8.52435Z" fill="#F2E009"/>
</svg>
